<?xml version="1.0" encoding="UTF-8"?>
<svg width="1041px" height="1200px" viewBox="0 0 1041 1200" version="1.1" xmlns="http://www.w3.org/2000/svg" xmlns:xlink="http://www.w3.org/1999/xlink">
    <!-- Generator: Sketch 45.2 (43514) - http://www.bohemiancoding.com/sketch -->
    <title>Mask + Shape + Shape Mask</title>
    <desc>Created with Sketch.</desc>
    <defs>
        <polygon id="path-1" points="519.615242 0 1039.23048 300 1039.23048 900 519.615242 1200 3.41060513e-13 900 0 300"></polygon>
    </defs>
    <g id="Page-1" stroke="none" stroke-width="1" fill="none" fill-rule="evenodd">
        <g id="Mask-+-Shape-+-Shape-Mask" transform="translate(1.000000, 0.000000)">
            <mask id="mask-2" fill="white">
                <use xlink:href="#path-1"></use>
            </mask>
            <use id="Mask" fill="#F62333" xlink:href="#path-1"></use>
            <path d="M1460.56908,733.000889 L1328.09962,690.407059 C1292.0826,718.029326 1256.27755,742.705134 1215.01926,758.878983 L1215.01399,759.18659 L1183.77598,899.235316 L1040.81124,916.958438 L976.453366,789.043305 L975.86085,789.474655 C931.91847,783.765002 887.376943,773.4327 845.741692,755.344934 L722.570132,835.065121 L609.163221,746.461931 L656.70092,607.644986 C629.077959,571.622306 609.332237,529.474333 593.145298,488.226254 L592.824998,488.211074 L452.759712,456.955008 L435,313.925911 L562.762423,249.46917 L562.083859,248.709062 C567.782605,204.747939 577.59133,159.797349 595.69992,118.168147 L514.956179,-5.79288138 L603.564327,-119.206139 L743.356334,-70.8299852 C779.35819,-98.4589959 822.500265,-117.351389 863.766292,-133.508975 L863.70432,-133.756688 L894.798545,-273.621369 L1037.50436,-291 L1101.34269,-162.432973 L1100.88017,-161.52702 C1144.83247,-155.830059 1187.31658,-142.83822 1228.93944,-124.734588 L1347.95699,-199.150974 L1461.3639,-110.547784 L1417.93053,22.9112154 C1445.5634,58.9212021 1469.38945,95.7027008 1485.56013,136.958514 L1485.77006,136.892575 L1625.6157,167.971926 L1642.93404,310.630635 L1514.23334,374.384976 L1513.09793,373.712519 C1507.38828,417.654899 1493.86929,459.747596 1475.78331,501.374022 L1549.17723,619.587631 L1460.56908,733.000889 Z M891.746475,501.660378 C996.147852,583.227673 1146.8609,564.731044 1228.43315,460.323322 C1309.98805,355.937811 1291.49926,205.195116 1187.09788,123.627821 C1082.7092,42.0704428 931.958665,60.5888868 850.403766,164.974397 C768.831513,269.38212 787.357792,420.103 891.746475,501.660378 Z" id="Shape" fill="#FFB4B5" fill-rule="nonzero" mask="url(#mask-2)"></path>
            <path d="M631.110992,1087.04926 L492.529477,1099.60138 C470.168508,1139.10078 446.851394,1175.80513 415.192561,1206.81414 L415.307909,1207.09935 L441.274558,1348.22054 L316.599797,1420.39554 L207.377641,1327.79566 L207.00077,1328.42423 C164.320656,1340.33813 119.282812,1348.23095 73.889908,1347.84927 L-8.3409521,1469.35905 L-147.352589,1432.11099 L-157.834007,1285.75486 C-197.336259,1263.38896 -231.980818,1232.30681 -262.997882,1200.6625 L-263.298651,1200.77368 L-404.442144,1226.73018 L-476.675966,1102.01048 L-384.255291,992.756979 L-385.17691,992.322432 C-397.108166,949.629328 -405.642782,904.419517 -405.239561,859.024045 L-528,776.46641 L-490.74986,637.446994 L-343.168569,627.356389 C-320.824201,587.856706 -288.493558,553.609215 -256.821251,522.612157 L-256.975086,522.40835 L-283.002185,381.51275 L-158.431163,309.756032 L-49.4325255,403.15898 L-49.5042947,404.173636 C-6.82001209,392.244185 37.363133,387.603372 82.7508259,388.004508 L163.230265,273 L302.241902,310.248056 L314.407854,450.068484 C353.914275,472.418826 390.217945,496.966795 421.223062,528.624585 L421.39054,528.481861 L562.262802,502.448509 L633.945617,626.999729 L540.386805,735.973278 L539.0789,735.797919 C550.992792,778.478033 554.995426,822.506854 554.611933,867.890937 L668.361132,948.029848 L631.110992,1087.04926 Z M17.1150817,1096.3559 C145.087936,1130.64612 276.592818,1054.73161 310.885125,926.750975 C345.170137,798.797568 269.251249,667.262332 141.278394,632.972109 C13.321098,598.686055 -118.209764,674.635298 -152.494776,802.588704 C-186.787084,930.569338 -110.842215,1062.06985 17.1150817,1096.3559 Z" id="Shape" fill="#FFFFFF" fill-rule="nonzero" mask="url(#mask-2)"></path>
        </g>
    </g>
</svg>