<?xml version="1.0" encoding="UTF-8"?>
<svg width="348px" height="400px" viewBox="0 0 348 400" version="1.1" xmlns="http://www.w3.org/2000/svg" xmlns:xlink="http://www.w3.org/1999/xlink">
    <!-- Generator: Sketch 45.2 (43514) - http://www.bohemiancoding.com/sketch -->
    <title>Mask + Shape + Shape Mask</title>
    <desc>Created with Sketch.</desc>
    <defs>
        <polygon id="path-1" points="173.205081 0 346.410162 100 346.410162 300 173.205081 400 1.13686838e-13 300 0 100"></polygon>
    </defs>
    <g id="Page-1" stroke="none" stroke-width="1" fill="none" fill-rule="evenodd">
        <g id="Mask-+-Shape-+-Shape-Mask" transform="translate(1.000000, 0.000000)">
            <mask id="mask-2" fill="white">
                <use xlink:href="#path-1"></use>
            </mask>
            <use id="Mask" fill="#F62333" xlink:href="#path-1"></use>
            <path d="M486.856361,244.33363 L442.699875,230.135686 C430.694199,239.343109 418.759183,247.568378 405.006419,252.959661 L405.004665,253.062197 L394.591992,299.745105 L346.937079,305.652813 L325.484455,263.014435 L325.28695,263.158218 C310.63949,261.255001 295.792314,257.8109 281.913897,251.781645 L240.856711,278.35504 L203.054407,248.820644 L218.900307,202.548329 C209.692653,190.540769 203.110746,176.491444 197.715099,162.742085 L197.608333,162.737025 L150.919904,152.318336 L145,104.64197 L187.587474,83.15639 L187.361286,82.9030206 C189.260868,68.249313 192.530443,53.2657828 198.56664,39.3893823 L171.65206,-1.93096046 L201.188109,-39.7353797 L247.785445,-23.6099951 C259.786063,-32.8196653 274.166755,-39.1171295 287.922097,-44.5029916 L287.90144,-44.5855628 L298.266182,-91.207123 L345.834786,-97 L367.114232,-54.1443243 L366.960058,-53.8423399 C381.610823,-51.943353 395.772193,-47.61274 409.646478,-41.5781959 L449.318997,-66.3836578 L487.121301,-36.8492612 L472.643509,7.63707181 C481.854468,19.6404007 489.796484,31.9009003 495.18671,45.6528381 L495.256687,45.6308583 L541.871901,55.9906419 L547.644681,103.543545 L504.744448,124.794992 L504.365977,124.57084 C502.462759,139.2183 497.95643,153.249199 491.92777,167.124674 L516.39241,206.52921 L486.856361,244.33363 Z M297.248825,167.220126 C332.049284,194.409224 382.286966,188.243681 409.477717,153.441107 C436.662683,118.645937 430.499752,68.3983719 395.699293,41.2092736 C360.903065,14.0234809 310.652888,20.1962956 283.467922,54.9914658 C256.277171,89.79404 262.452597,140.034333 297.248825,167.220126 Z" id="Shape" fill="#FFB4B5" fill-rule="nonzero" mask="url(#mask-2)"></path>
            <path d="M210.370331,362.349755 L164.176492,366.533793 C156.722836,379.700261 148.950465,391.935043 138.39752,402.271379 L138.43597,402.366449 L147.091519,449.406848 L105.533266,473.465179 L69.1258802,442.598553 L69.0002565,442.808078 C54.7735519,446.779376 39.7609373,449.410318 24.6299693,449.283089 L-2.78031737,489.786349 L-49.1175296,477.370331 L-52.6113358,428.584954 C-65.7787531,421.129653 -77.3269392,410.768938 -87.6659608,400.220833 L-87.766217,400.257892 L-134.814048,408.910061 L-158.891989,367.336826 L-128.085097,330.918993 L-128.392303,330.774144 C-132.369389,316.543109 -135.214261,301.473172 -135.079854,286.341348 L-176,258.822137 L-163.583287,212.482331 L-114.389523,209.118796 C-106.9414,195.952235 -96.1645192,184.536405 -85.6070837,174.204052 L-85.6583621,174.136117 L-94.3340617,127.170917 L-52.8103876,103.252011 L-16.4775085,134.386327 L-16.5014316,134.724545 C-2.27333736,130.748062 12.4543777,129.201124 27.5836086,129.334836 L54.4100885,91 L100.747301,103.416019 L104.802618,150.022828 C117.971425,157.472942 130.072648,165.655598 140.407687,176.208195 L140.463513,176.16062 L187.420934,167.482836 L211.315206,208.99991 L180.128935,245.324426 L179.692967,245.265973 C183.664264,259.492678 184.998475,274.168951 184.870644,289.296979 L222.787044,316.009949 L210.370331,362.349755 Z M5.70502722,365.451967 C48.3626455,376.882041 92.1976059,351.577203 103.628375,308.916992 C115.056712,266.265856 89.7504164,222.420777 47.0927981,210.990703 C4.440366,199.562018 -39.4032547,224.878433 -50.831592,267.529568 C-62.2623612,310.189779 -36.9474049,354.023282 5.70502722,365.451967 Z" id="Shape" fill="#FFFFFF" fill-rule="nonzero" mask="url(#mask-2)"></path>
        </g>
    </g>
</svg>