<?xml version="1.0" encoding="UTF-8"?>
<svg width="348px" height="402px" viewBox="0 0 348 402" version="1.1" xmlns="http://www.w3.org/2000/svg" xmlns:xlink="http://www.w3.org/1999/xlink">
    <!-- Generator: Sketch 45.2 (43514) - http://www.bohemiancoding.com/sketch -->
    <title>pureconfig-wickland-1</title>
    <desc>Created with Sketch.</desc>
    <defs></defs>
    <g id="Page-1" stroke="none" stroke-width="1" fill="none" fill-rule="evenodd">
        <polygon id="Polygon" stroke="#979797" fill="#F62333" points="174 1 347.205081 101 347.205081 301 174 401 0.794919243 301 0.794919243 101"></polygon>
        <path d="M192.786197,145.736786 L174.777513,158.428977 C174.838398,165.615406 174.5469,172.49427 172.660698,179.25257 L172.699094,179.282547 L187.431754,196.577489 L176.050118,216.344259 L153.742677,212.293655 L153.740763,212.409681 C148.831619,217.422164 143.280848,222.06993 137.026325,225.611198 L135.370297,248.782646 L113.360121,254.680255 L100.336375,235.44158 C93.1491648,235.502014 85.9380092,233.982703 79.1797529,232.09913 L79.147313,232.138186 L61.84851,246.87122 L42.0701152,235.488079 L46.0936666,213.190527 L45.9328919,213.203903 C40.9169991,208.294353 36.1676166,202.77081 32.6290983,196.51423 L9.26028963,194.912404 L3.36235076,172.900997 L22.7999595,159.833847 C22.7367763,152.648695 24.4587167,145.393146 26.3477114,138.635417 L26.3104828,138.619649 L11.5873941,121.360426 L22.9879183,101.659223 L45.3282866,105.837641 L45.3987725,105.982453 C50.3072559,100.967506 55.9982814,96.8333222 62.2536298,93.2951339 L64.1845024,71.1543475 L86.1946782,65.2567387 L98.9319992,83.4658743 C106.118549,83.4029769 113.039914,83.8949708 119.797599,85.7813371 L119.809264,85.7485078 L137.064792,71.0264093 L156.754294,82.4300689 L152.552518,104.779336 L152.359295,104.858833 C157.371778,109.767977 161.406237,115.488364 164.946559,121.741821 L186.888258,123.725378 L192.786197,145.736786 Z M109.33143,195.620928 C129.593799,190.191643 141.615939,169.371389 136.186324,149.107788 C130.757864,128.848499 109.934607,116.822542 89.6722387,122.251828 C69.4123334,127.680453 57.3893794,148.507525 62.8178396,168.766815 C68.247455,189.030415 89.0715246,201.049553 109.33143,195.620928 Z" id="Shape" fill="#FFFFFF" fill-rule="nonzero"></path>
        <path d="M335.810038,260.609094 L314.449008,266.00454 C311.930463,272.735469 309.193162,279.052978 305.010284,284.686441 L305.035386,284.728186 L312.591556,306.154119 L294.882107,320.529175 L275.507924,308.753338 L275.464556,308.860972 C269.085162,311.781248 262.237461,314.131093 255.129283,315.19573 L245.279344,336.234674 L222.617561,333.852824 L217.35337,311.224681 C210.621874,308.705435 204.434153,304.702789 198.799789,300.52238 L198.755508,300.547216 L177.325837,308.102352 L162.940467,290.387331 L174.687504,271.012685 L174.532614,270.967556 C171.6093,264.586561 169.154831,257.727863 168.093497,250.618751 L146.850877,240.748686 L149.23286,218.085635 L172.062279,212.852216 C174.578221,206.121655 178.785947,199.965104 182.971229,194.333176 L182.942123,194.305114 L175.382088,172.915959 L193.085674,158.608883 L212.444794,170.515844 L212.458702,170.676298 C218.838362,167.753485 225.632951,165.933373 232.740795,164.871906 L242.477969,144.893664 L265.139752,147.275513 L270.505495,168.839854 C277.237257,171.356563 283.522594,174.296274 289.155422,178.479086 L289.178078,178.452618 L310.56343,170.892183 L324.858457,188.594503 L312.9265,207.95356 L312.717621,207.958532 C315.637898,214.337926 317.354387,221.124188 318.418523,228.23103 L338.19202,237.946043 L335.810038,260.609094 Z M240.021423,277.272439 C260.883656,279.465148 279.568603,264.336117 281.761445,243.472616 C283.953821,222.613554 268.823354,203.923968 247.961121,201.731259 C227.101425,199.538817 208.413275,214.673922 206.220899,235.532984 C204.028057,256.396485 219.161727,275.079997 240.021423,277.272439 Z" id="Shape" fill="#FFB4B5" fill-rule="nonzero"></path>
    </g>
</svg>